# xmcd
#
# Track frame offsets:
#	150
#	15476
#	32320
#	55658
#	70163
#	88822
#	103790
#	125073
#	138290
#	153087
#	177674
#	196993
#
# Disc length: 2895 seconds
#
# Revision: 1
# Processed by: cddbd v1.4PL0 Copyright (c) Steve Scherf et al.
# Submitted via: audiograbber 1.82.02
#
DISCID=9a0b4d0c
DTITLE=Marshall Mitchell and the Rockville Rangers - Ranger Music
DYEAR=2001
DGENRE=Country
TTITLE0=66 thru Tucamari
TTITLE1=On the run
TTITLE2=Long drink of water
TTITLE3=Annabelle
TTITLE4=Love, come and go easy
TTITLE5=Between the riddles and the rhymes
TTITLE6=The pirate song
TTITLE7=Ol' dog-eared pages
TTITLE8=Sometimes a cowboy
TTITLE9=Old Fiddler's waltz
TTITLE10=I don't need
TTITLE11=The traveler
EXTD=
EXTT0=
EXTT1=
EXTT2=
EXTT3=
EXTT4=
EXTT5=
EXTT6=
EXTT7=
EXTT8=
EXTT9=
EXTT10=
EXTT11=
PLAYORDER=
